<svg width="14" height="14" viewBox="0 0 14 14" fill="none" xmlns="http://www.w3.org/2000/svg">
<g clip-path="url(#clip0_149_7785)">
<path d="M4.65 2.24002L4.26 2.33002C4.29532 2.48373 4.29974 2.64293 4.27299 2.79836C4.24624 2.95379 4.18886 3.10235 4.10419 3.23541C4.01951 3.36847 3.90923 3.48337 3.77976 3.57343C3.65029 3.66349 3.5042 3.72692 3.35 3.76002C3.03731 3.8258 2.7113 3.76627 2.44203 3.59424C2.17276 3.42221 1.98173 3.1514 1.91 2.84002L1.13 3.00002C1.02303 3.02336 0.92191 3.06814 0.832736 3.13166C0.743562 3.19518 0.668191 3.27612 0.611176 3.36959C0.554161 3.46305 0.516686 3.56711 0.501016 3.67547C0.485345 3.78382 0.491804 3.89423 0.520002 4.00002C0.520002 4.00002 0.880002 5.67002 1.3 7.55002" stroke="#000001" stroke-linecap="round" stroke-linejoin="round"/>
<path d="M12.1501 2.23001C12.0903 2.39839 11.997 2.55289 11.8758 2.68414C11.7545 2.81539 11.6079 2.92067 11.4448 2.99359C11.2817 3.06651 11.1055 3.10556 10.9268 3.10837C10.7482 3.11118 10.5708 3.07769 10.4055 3.00993C10.2402 2.94218 10.0903 2.84156 9.96504 2.71419C9.83975 2.58681 9.74162 2.43533 9.67659 2.26891C9.61157 2.10249 9.58101 1.9246 9.58677 1.74602C9.59252 1.56745 9.63447 1.3919 9.71007 1.23001L8.90006 0.850008C8.68378 0.759871 8.44066 0.758668 8.22349 0.84666C8.00632 0.934652 7.83261 1.10474 7.74006 1.32001L4.38007 9.23001L3.94007 10.23C3.84993 10.4463 3.84873 10.6894 3.93672 10.9066C4.02471 11.1238 4.1948 11.2975 4.41007 11.39L8.47007 13.12C8.68636 13.2101 8.92947 13.2113 9.14664 13.1234C9.36381 13.0354 9.53752 12.8653 9.63007 12.65L13.4301 3.71001C13.5139 3.50212 13.5161 3.27027 13.4364 3.06078C13.3567 2.8513 13.2009 2.67961 13.0001 2.58001L12.1501 2.23001Z" stroke="#000001" stroke-linecap="round" stroke-linejoin="round"/>
</g>
<defs>
<clipPath id="clip0_149_7785">
<rect width="14" height="14" fill="white"/>
</clipPath>
</defs>
</svg>
