<svg width="14" height="14" viewBox="0 0 14 14" fill="none" xmlns="http://www.w3.org/2000/svg">
<g clip-path="url(#clip0_3_3127)">
<path d="M7 4.5V3" stroke="#000001" stroke-linecap="round" stroke-linejoin="round"/>
<path d="M5.5 8.5C5.5 9.25 6.17 9.5 7 9.5C7.83 9.5 8.5 9.5 8.5 8.5C8.5 7 5.5 7 5.5 5.5C5.5 4.5 6.17 4.5 7 4.5C7.83 4.5 8.5 4.88 8.5 5.5" stroke="#000001" stroke-linecap="round" stroke-linejoin="round"/>
<path d="M7 9.5V11" stroke="#000001" stroke-linecap="round" stroke-linejoin="round"/>
<path d="M7 13.5C10.5899 13.5 13.5 10.5899 13.5 7C13.5 3.41015 10.5899 0.5 7 0.5C3.41015 0.5 0.5 3.41015 0.5 7C0.5 10.5899 3.41015 13.5 7 13.5Z" stroke="#000001" stroke-linecap="round" stroke-linejoin="round"/>
</g>
<defs>
<clipPath id="clip0_3_3127">
<rect width="14" height="14" fill="white"/>
</clipPath>
</defs>
</svg>
