<svg width="24" height="24" viewBox="0 0 24 24" fill="none" xmlns="http://www.w3.org/2000/svg">
<path d="M21.5781 18.354C21.5781 16.574 20.5048 15.066 19.0152 14.524L17.9531 10.06H19.2747V6.82202H17.7627C17.1747 6.82202 16.6669 7.18202 16.4168 7.70603H14.5315V9.17603H16.3701V13.242C16.2208 14.612 15.1979 15.69 13.9192 15.828H12.9784V3.01202H2.40937V12.664H2.40002V18.35H5.4819C5.42777 18.548 5.3979 18.756 5.3979 18.974C5.3979 20.214 6.33495 21.218 7.4923 21.218C8.64962 21.218 9.5867 20.214 9.5867 18.974C9.5867 18.758 9.55682 18.548 9.5027 18.35H12.6163L15.6253 18.3521C15.5731 18.5501 15.5432 18.758 15.5432 18.972C15.5432 20.2121 16.4803 21.216 17.6376 21.216C18.7949 21.216 19.732 20.2121 19.732 18.972C19.732 18.756 19.7021 18.548 19.648 18.35H21.58L21.5781 18.354ZM6.9099 17.202H6.8483H6.97337H6.91175H6.9099ZM6.90242 15.092L6.89495 11.988L4.5299 11.998L6.11282 6.90002H9.36642L8.40697 9.92603H11.1006L6.90242 15.09V15.092Z" fill="#7B3FF2"/>
</svg>
