<svg width="17" height="16" viewBox="0 0 17 16" fill="none" xmlns="http://www.w3.org/2000/svg">
<path d="M16.0556 0V15.758H0V0H16.0556ZM4.08463 11.3973H4.07692C3.87348 11.2615 3.62923 11.1892 3.36069 11.1892C2.6446 11.1892 2.06698 11.7569 2.06698 12.4597C2.06714 13.1624 2.6447 13.7295 3.36069 13.7295C3.62109 13.7295 3.86534 13.6495 4.07692 13.5137V13.7295H4.66286V10.3273H4.08463V11.3973ZM7.04672 11.3919C6.84496 11.2597 6.60384 11.1892 6.33896 11.1892C5.62292 11.1893 5.04526 11.7569 5.04526 12.4597C5.04542 13.1624 5.62302 13.7294 6.33896 13.7295C6.59936 13.7295 6.84362 13.6495 7.05519 13.5137V13.7295H7.63266V11.1892H7.04672V11.3919ZM8.16234 13.7295H8.74751V11.1892H8.16234V13.7295ZM10.1314 11.1815C9.69204 11.1815 9.17935 11.4051 9.17927 11.9162C9.17927 11.9561 9.13048 12.4117 9.91167 12.5954C10.3184 12.6913 10.53 12.7552 10.53 12.9948C10.5288 13.003 10.4919 13.2421 10.1723 13.2422C9.66504 13.2422 9.7147 12.8512 9.7158 12.8429H9.13838C9.13735 12.8533 9.05548 13.7295 10.1638 13.7295C10.1638 13.7295 11.1159 13.7613 11.1159 12.9308C11.1159 12.795 11.075 12.3958 10.2856 12.196H10.2779C10.1396 12.1562 9.75725 12.0761 9.76514 11.8846C9.76514 11.7249 9.96836 11.6687 10.1068 11.6687C10.5054 11.6687 10.5215 11.9724 10.5215 11.9724H11.0912C11.0912 11.9724 11.0508 11.1815 10.1314 11.1815ZM12.6864 11.1815C11.9704 11.1815 11.3928 11.7486 11.3927 12.4513C11.3927 13.1541 11.9703 13.7211 12.6864 13.7211C13.4025 13.7211 13.9801 13.1541 13.9801 12.4513C13.98 11.7486 13.4024 11.1815 12.6864 11.1815ZM3.36916 11.7566C3.75957 11.7568 4.0768 12.0681 4.07692 12.4513C4.07692 12.8346 3.75964 13.1466 3.36916 13.1466C2.97856 13.1466 2.66064 12.8346 2.66064 12.4513C2.66076 12.068 2.97863 11.7566 3.36916 11.7566ZM6.34744 11.7566C6.73789 11.7567 7.05508 12.0681 7.05519 12.4513C7.05519 12.8346 6.73796 13.1466 6.34744 13.1466C5.95684 13.1466 5.63892 12.8346 5.63892 12.4513C5.63904 12.068 5.95691 11.7566 6.34744 11.7566ZM12.6864 11.7566C13.0769 11.7566 13.3941 12.068 13.3941 12.4513C13.3941 12.8346 13.077 13.1466 12.6864 13.1466C12.2958 13.1466 11.9787 12.8346 11.9787 12.4513C11.9788 12.068 12.2959 11.7566 12.6864 11.7566ZM12.6864 6.61343C11.9703 6.61345 11.3927 7.1804 11.3927 7.88322C11.3928 8.58598 11.9704 9.15298 12.6864 9.15306C13.4024 9.15306 13.98 8.58598 13.9801 7.88322C13.9801 7.18038 13.4025 6.61343 12.6864 6.61343ZM3.36916 6.60495C2.65315 6.60495 2.07485 7.17203 2.0747 7.87474C2.0747 8.57761 2.66119 9.14454 3.36916 9.14454C4.07701 9.14438 4.66286 8.57753 4.66286 7.87474C4.66271 7.17212 4.08506 6.60509 3.36916 6.60495ZM8.032 6.60495C7.31601 6.60495 6.73771 7.17203 6.73756 7.87474C6.73756 8.57761 7.31591 9.14454 8.032 9.14454C8.74798 9.14438 9.32572 8.57745 9.32572 7.87474C9.32556 7.17212 8.7479 6.6051 8.032 6.60495ZM3.36916 7.1878C3.75964 7.18795 4.07692 7.49995 4.07692 7.88322C4.0768 8.2664 3.75957 8.57777 3.36916 8.57785C2.97863 8.57785 2.66076 8.26648 2.66064 7.88322C2.66064 7.49986 2.97856 7.1878 3.36916 7.1878ZM8.032 7.1878C8.42248 7.18796 8.73977 7.49996 8.73977 7.88322C8.73969 8.2664 8.4224 8.57769 8.032 8.57785C7.64149 8.57785 7.32362 8.26648 7.3235 7.88322C7.3235 7.49986 7.64142 7.1878 8.032 7.1878ZM12.6864 7.1801C13.0769 7.1801 13.394 7.4915 13.3941 7.87474C13.3941 8.25811 13.077 8.57019 12.6864 8.57019C12.2958 8.57011 11.9787 8.25811 11.9787 7.87474C11.9788 7.49152 12.2959 7.18011 12.6864 7.1801ZM3.36916 2.03692C2.65305 2.03692 2.0747 2.60388 2.0747 3.30672C2.07478 4.00948 2.66125 4.57651 3.36916 4.57651C4.07696 4.57636 4.66277 4.00939 4.66286 3.30672C4.66286 2.60396 4.08514 2.03706 3.36916 2.03692ZM8.032 2.03692C7.31591 2.03692 6.73756 2.60388 6.73756 3.30672C6.73764 4.00948 7.31597 4.57651 8.032 4.57651C8.74798 4.57636 9.32564 4.00939 9.32572 3.30672C9.32572 2.60397 8.74798 2.03707 8.032 2.03692ZM12.6864 2.03692C11.9703 2.03694 11.3927 2.60388 11.3927 3.30672C11.3928 4.00947 11.9704 4.57649 12.6864 4.57651C13.4024 4.57651 13.98 4.00948 13.9801 3.30672C13.9801 2.60388 13.4025 2.03692 12.6864 2.03692ZM3.36916 2.61206C3.75964 2.61221 4.07692 2.92343 4.07692 3.30672C4.07683 3.68992 3.75959 4.00122 3.36916 4.00136C2.97861 4.00136 2.66073 3.69001 2.66064 3.30672C2.66064 2.92335 2.97856 2.61206 3.36916 2.61206ZM8.032 2.60358C8.4224 2.60374 8.73961 2.91511 8.73977 3.29823C8.73977 3.68151 8.42248 3.9935 8.032 3.99365C7.64142 3.99365 7.3235 3.6816 7.3235 3.29823C7.32368 2.91502 7.64153 2.60358 8.032 2.60358ZM12.6864 2.60358C13.0769 2.60358 13.394 2.91502 13.3941 3.29823C13.3941 3.6816 13.077 3.99365 12.6864 3.99365C12.2958 3.99363 11.9787 3.68159 11.9787 3.29823C11.9788 2.91503 12.2959 2.60361 12.6864 2.60358Z" fill="white"/>
</svg>
