<svg width="24" height="24" viewBox="0 0 24 24" fill="none" xmlns="http://www.w3.org/2000/svg">
<path d="M13.5439 13.3461L16.1959 7.87413L10.7599 5.17413L7.8219 11.3681L16.1259 22.0061L20.0819 21.9821L13.5439 13.3461Z" fill="#D70011"/>
<path d="M15.6633 13.4859L18.325 12.1641L16.1941 7.87335L13.5325 9.19519L15.6633 13.4859Z" fill="#D70011"/>
<path d="M15.6638 10.514V13.484H20.4539V10.514H15.6638Z" fill="#D70011"/>
<path d="M5.9696 5.17578V8.14578H10.7596V5.17578H5.9696Z" fill="#D70011"/>
<path d="M13.2819 13.5801L10.6219 12.2581L8.29786 16.9341H4.04187V19.9061L10.1419 19.9121L13.2819 13.5801Z" fill="#D70011"/>
<path d="M16.7102 4.91222C17.1957 3.93472 16.7966 2.74862 15.8188 2.26302C14.841 1.77741 13.6547 2.17619 13.1693 3.15371C12.6838 4.13123 13.083 5.31731 14.0608 5.80291C15.0386 6.28852 16.2248 5.88974 16.7102 4.91222Z" fill="#D70011"/>
</svg>
