<svg width="58" height="14" viewBox="0 0 58 14" fill="none" xmlns="http://www.w3.org/2000/svg">
<g clip-path="url(#clip0_2065_996)">
<path d="M16.2539 0.278761V5.36131H18.8212V8.02696H16.2539V14H13.487V0.278761H16.2539ZM37.5723 14H34.8044V0.278761H37.5723V14ZM50.1235 11.6489H57.5V14H39.986V11.6489H47.3567V7.78402H50.1235V11.6489ZM11.1088 3.47386H3.2429V8.00954C3.2429 9.81447 3.87371 10.7049 5.74586 10.8058H11.1146V13.4067H5.74586C2.22528 13.4067 0.5 11.4055 0.5 8.06278V0.878872H11.1088V3.47386ZM26.7744 1.07439C30.0888 1.07439 32.7917 3.79979 32.7919 7.14228C32.7919 10.485 30.0889 13.2102 26.7744 13.2102C23.46 13.2101 20.7579 10.4849 20.7579 7.14228C20.7581 3.79987 23.4601 1.07454 26.7744 1.07439ZM26.7744 3.81748C24.9555 3.81761 23.478 5.30795 23.4778 7.14228C23.4778 8.97682 24.9613 10.4611 26.7744 10.4613C28.5994 10.4613 30.0778 8.97096 30.0778 7.14228C30.0775 5.3138 28.5934 3.81748 26.7744 3.81748ZM57.3762 7.62915L55.3982 9.6008L48.7396 3.61615L42.0878 9.6008L40.1088 7.62915L48.7396 0L57.3762 7.62915Z" fill="white"/>
</g>
<defs>
<clipPath id="clip0_2065_996">
<rect width="58" height="14" fill="white"/>
</clipPath>
</defs>
</svg>
