<svg width="24" height="24" viewBox="0 0 24 24" fill="none" xmlns="http://www.w3.org/2000/svg">
<mask id="mask0_13903_8314" style="mask-type:luminance" maskUnits="userSpaceOnUse" x="0" y="0" width="24" height="24">
<path d="M24 0H0V24H24V0Z" fill="white"/>
</mask>
<g mask="url(#mask0_13903_8314)">
<path d="M12.03 20L19.26 12.75C20.06 11.95 20.5 10.88 20.5 9.75001C20.5 8.62001 20.06 7.55001 19.26 6.75001C18.46 5.95001 17.39 5.51001 16.26 5.51001C15.13 5.51001 14.06 5.95001 13.26 6.75001L13.07 6.94001L12.01 8.00001L10.95 6.94001L10.76 6.75001C9.96001 5.95001 8.89001 5.51001 7.75001 5.51001C6.61001 5.51001 5.55001 5.95001 4.75001 6.75001C3.95001 7.55001 3.51001 8.62001 3.51001 9.75001C3.51001 10.88 3.95001 11.95 4.75001 12.75L12.02 20.02L12.04 20H12.03Z" fill="#111111" fill-opacity="0.1"/>
<path d="M16.25 4C14.71 4 13.27 4.6 12.19 5.68L12 5.87L11.81 5.68C10.69 4.56 9.22001 4 7.75001 4C6.28001 4 4.81001 4.56 3.69001 5.68C1.45001 7.92 1.45001 11.57 3.69001 13.81L10.96 21.08L12.02 20.02L4.75001 12.75C3.95001 11.95 3.51001 10.88 3.51001 9.75C3.51001 8.62 3.95001 7.55 4.75001 6.75C5.55001 5.95 6.62001 5.51 7.75001 5.51C8.89001 5.51 9.95001 5.95 10.76 6.75L10.95 6.94L12.01 8L13.07 6.94L13.26 6.75C14.06 5.95 15.13 5.51 16.26 5.51C17.39 5.51 18.46 5.95 19.26 6.75C20.06 7.55 20.5 8.62 20.5 9.75C20.5 10.88 20.06 11.95 19.26 12.75L12.03 20L13.09 21.06L20.32 13.81C22.56 11.57 22.56 7.92 20.32 5.68C19.24 4.6 17.79 4 16.26 4H16.25Z" fill="white" fill-opacity="0.6"/>
</g>
</svg>
