<svg width="24" height="24" viewBox="0 0 24 24" fill="none" xmlns="http://www.w3.org/2000/svg">
<path fill-rule="evenodd" clip-rule="evenodd" d="M12 13.8312C10.1517 13.8312 8.64756 12.3283 8.64756 10.4799C8.64756 8.63162 10.1517 7.12749 12 7.12749C13.8483 7.12749 15.3512 8.63162 15.3512 10.4799C15.3512 12.3283 13.8483 13.8312 12 13.8312ZM18.8764 2.99969C17.0011 1.06563 14.5588 0 12 0C9.43882 0 6.99644 1.06563 5.11995 3.00092C3.21529 4.9656 2.16925 7.60519 2.25132 10.2435C2.48282 17.7201 11.2896 23.5419 11.6656 23.7856L11.9951 24L12.3283 23.7893C12.7031 23.5517 21.516 17.8708 21.7487 10.2423C21.8296 7.60519 20.7823 4.96438 18.8764 2.99969Z" fill="black"/>
</svg>
