<svg width="24" height="24" viewBox="0 0 24 24" fill="none" xmlns="http://www.w3.org/2000/svg">
<g clip-path="url(#clip0_3312_254)">
<mask id="mask0_3312_254" style="mask-type:luminance" maskUnits="userSpaceOnUse" x="0" y="0" width="24" height="24">
<path d="M24 0H0V24H24V0Z" fill="white"/>
</mask>
<g mask="url(#mask0_3312_254)">
<path d="M3.5 8.97021H2V15.0302H3.5V8.97021Z" fill="white"/>
<path d="M23.9998 10.2304L22.9398 9.17041L21.1698 10.9404L19.3998 9.17041L18.3398 10.2304L20.1098 12.0004L18.3398 13.7704L19.3998 14.8304L21.1698 13.0604L22.9398 14.8304L23.9998 13.7704L22.2298 12.0004L23.9998 10.2304Z" fill="white"/>
<path d="M14.99 1.97021C14.8 1.97021 14.61 2.03021 14.43 2.15021L6.78 7.47021H3.5V8.97021H7.25L14.48 3.94021V20.0602L7.25 15.0302H3.5V16.5302H6.78L14.43 21.8502C14.61 21.9702 14.8 22.0302 14.99 22.0302C15.5 22.0302 15.98 21.6202 15.98 21.0402V2.96021C15.98 2.38021 15.5 1.97021 14.99 1.97021Z" fill="white"/>
</g>
</g>
<defs>
<clipPath id="clip0_3312_254">
<rect width="24" height="24" fill="white"/>
</clipPath>
</defs>
</svg>
