<svg width="28" height="28" viewBox="0 0 28 28" fill="none" xmlns="http://www.w3.org/2000/svg">
<g clip-path="url(#clip0_2097_1140)">
<path d="M18.7887 8H9.21065C8.61959 8.00544 8.05471 8.26655 7.64018 8.72591C7.22565 9.18527 6.99541 9.80529 7.00007 10.4497V16.2617C6.99541 16.906 7.22567 17.526 7.64022 17.9852C8.05477 18.4444 8.61966 18.7054 9.21065 18.7106H12.5104L13.6367 20.7329L13.6717 20.7909C13.7042 20.8543 13.7516 20.9071 13.8091 20.9439C13.8666 20.9806 13.932 21 13.9986 21C14.0652 21 14.1306 20.9806 14.1881 20.9439C14.2456 20.9071 14.293 20.8543 14.3255 20.7909L14.3633 20.7299L15.4882 18.7076H18.788C19.3786 18.7023 19.9432 18.4419 20.3579 17.9833C20.7726 17.5248 21.0035 16.9056 20.9999 16.2617V10.4497C21.0042 9.80528 20.7738 9.18538 20.3592 8.72608C19.9446 8.26679 19.3797 8.00564 18.7887 8Z" fill="#222222"/>
<path d="M10.1486 14.9787C10.0051 14.9838 9.86275 14.9521 9.73506 14.8865C9.60737 14.8209 9.49861 14.7238 9.41916 14.6042V14.8842H8.54346V11.2722H9.40936V12.6491C9.60664 12.4494 9.86936 12.3276 10.1493 12.3061C11.3134 12.3061 11.3715 13.6137 11.3722 13.6263C11.3809 13.7955 11.3562 13.9648 11.2994 14.1244C11.2426 14.2841 11.1548 14.4309 11.0412 14.5566C10.9275 14.6822 10.7901 14.7842 10.6369 14.8566C10.4838 14.9291 10.3178 14.9706 10.1486 14.9787ZM9.95746 13.0985C9.8467 13.0985 9.73843 13.1314 9.64634 13.1929C9.55425 13.2544 9.48247 13.3419 9.44008 13.4442C9.3977 13.5465 9.38661 13.6591 9.40822 13.7678C9.42983 13.8764 9.48316 13.9762 9.56148 14.0545C9.63979 14.1328 9.73958 14.1861 9.84821 14.2078C9.95684 14.2294 10.0694 14.2183 10.1718 14.1759C10.2741 14.1335 10.3615 14.0617 10.4231 13.9696C10.4846 13.8775 10.5175 13.7693 10.5175 13.6585C10.5175 13.585 10.503 13.5122 10.4748 13.4442C10.4467 13.3763 10.4054 13.3145 10.3534 13.2625C10.3014 13.2105 10.2397 13.1693 10.1718 13.1411C10.1038 13.113 10.031 13.0985 9.95746 13.0985Z" fill="#F7F7F8"/>
<path d="M11.6508 11.1887V12.0287C11.6508 12.0287 12.0456 12.0112 12.0456 12.749V14.8868H12.8856V12.5488C12.8856 12.5488 12.9192 11.1887 11.6508 11.1887Z" fill="#F7F7F8"/>
<path d="M14.9282 14.9779C14.7317 14.9906 14.5347 14.9627 14.3495 14.896C14.1643 14.8293 13.9948 14.7252 13.8516 14.5901C13.6223 14.3329 13.4948 14.0009 13.4932 13.6563C13.4932 12.3333 14.9142 12.3179 14.9282 12.3179C15.1301 12.3045 15.3327 12.333 15.5231 12.4015C15.7135 12.4701 15.8878 12.5772 16.0349 12.7162C16.266 12.9749 16.3942 13.3094 16.3954 13.6563C16.3954 14.9604 14.9429 14.9779 14.9282 14.9779ZM14.9282 13.0977C14.8174 13.0977 14.7091 13.1306 14.617 13.1921C14.525 13.2536 14.4532 13.3411 14.4108 13.4434C14.3684 13.5457 14.3573 13.6583 14.3789 13.767C14.4005 13.8756 14.4539 13.9754 14.5322 14.0537C14.6105 14.132 14.7103 14.1853 14.8189 14.2069C14.9275 14.2286 15.0401 14.2175 15.1425 14.1751C15.2448 14.1327 15.3323 14.0609 15.3938 13.9688C15.4553 13.8767 15.4882 13.7685 15.4882 13.6577C15.488 13.5093 15.4289 13.3671 15.3239 13.2622C15.2189 13.1573 15.0766 13.0984 14.9282 13.0984V13.0977Z" fill="#F7F7F8"/>
<path d="M18.3659 16.2093H18.0229V15.4393H18.2329C18.3086 15.444 18.3844 15.4324 18.4552 15.4052C18.5259 15.378 18.59 15.3359 18.6431 15.2818C18.747 15.1456 18.7968 14.9758 18.7831 14.8051V14.6035C18.6892 14.7092 18.5736 14.7934 18.4443 14.8505C18.3149 14.9077 18.1748 14.9363 18.0334 14.9346H18.0229C17.8728 14.9415 17.7229 14.9178 17.5822 14.8649C17.4416 14.8121 17.3131 14.7313 17.2046 14.6273C16.9696 14.3544 16.838 14.0075 16.8329 13.6473C16.8141 13.4782 16.8315 13.307 16.884 13.1452C16.9365 12.9834 17.0229 12.8346 17.1374 12.7087C17.2519 12.5829 17.392 12.4829 17.5481 12.4154C17.7043 12.3479 17.8731 12.3145 18.0432 12.3173H18.0607C18.1995 12.3162 18.3369 12.3454 18.4633 12.4027C18.5897 12.4599 18.7022 12.544 18.7929 12.6491V12.4027H19.6329V14.8527C19.6463 15.0267 19.6234 15.2016 19.5656 15.3663C19.5079 15.5309 19.4166 15.6818 19.2975 15.8094C19.1784 15.9369 19.034 16.0383 18.8737 16.1072C18.7133 16.176 18.5404 16.2108 18.3659 16.2093ZM18.2707 13.0978C18.16 13.0978 18.0517 13.1306 17.9596 13.1922C17.8675 13.2537 17.7957 13.3412 17.7533 13.4435C17.711 13.5458 17.6999 13.6584 17.7215 13.7671C17.7431 13.8757 17.7964 13.9755 17.8747 14.0538C17.953 14.1321 18.0528 14.1854 18.1615 14.207C18.2701 14.2287 18.3827 14.2176 18.485 14.1752C18.5873 14.1328 18.6748 14.061 18.7363 13.9689C18.7979 13.8768 18.8307 13.7686 18.8307 13.6578C18.8307 13.5093 18.7717 13.3668 18.6667 13.2618C18.5617 13.1568 18.4192 13.0978 18.2707 13.0978Z" fill="#F7F7F8"/>
</g>
<defs>
<clipPath id="clip0_2097_1140">
<rect width="28" height="28" fill="white"/>
</clipPath>
</defs>
</svg>
