<svg width="24" height="24" viewBox="0 0 24 24" fill="none" xmlns="http://www.w3.org/2000/svg">
<g clip-path="url(#clip0_21649_12307)">
<mask id="mask0_21649_12307" style="mask-type:luminance" maskUnits="userSpaceOnUse" x="0" y="0" width="25" height="24">
<path d="M24.2002 0H0.200195V24H24.2002V0Z" fill="white"/>
</mask>
<g mask="url(#mask0_21649_12307)">
<path d="M12.2003 1.56006C6.44025 1.56006 1.76025 6.24006 1.76025 12.0001C1.76025 14.4801 2.72025 16.9501 4.43025 18.8701L5.55025 17.9601C4.07025 16.3201 3.26025 14.2201 3.26025 12.0001C3.26025 7.07006 7.27025 3.06006 12.2003 3.06006C17.1303 3.06006 21.1403 7.07006 21.1403 12.0001C21.1403 16.9301 17.1303 20.9401 12.2003 20.9401C10.8703 20.9401 9.78025 19.8501 9.78025 18.5201V17.4601V14.0801V8.35006L9.83025 8.30006H9.85025L16.5103 11.9401V12.0201L11.2803 14.8701V16.5801L17.2303 13.3401C18.3003 12.7501 18.3003 11.2101 17.2303 10.6301L10.5703 7.00006C10.3303 6.87006 10.0803 6.81006 9.83025 6.81006C9.02025 6.81006 8.28025 7.46006 8.28025 8.36006V10.5601V18.5401C8.28025 20.7001 10.0403 22.4601 12.2003 22.4601C17.9603 22.4601 22.6403 17.7801 22.6403 12.0201C22.6403 6.26006 17.9603 1.56006 12.2003 1.56006Z" fill="#161D24"/>
</g>
</g>
<defs>
<clipPath id="clip0_21649_12307">
<rect width="24" height="24" fill="white"/>
</clipPath>
</defs>
</svg>
