<svg width="20" height="20" viewBox="0 0 20 20" fill="none" xmlns="http://www.w3.org/2000/svg">
<mask id="mask0_14126_1704" style="mask-type:luminance" maskUnits="userSpaceOnUse" x="0" y="0" width="20" height="20">
<path d="M20 20V0L0 0V20H20Z" fill="white"/>
</mask>
<g mask="url(#mask0_14126_1704)">
<path d="M12.4833 16.25V13.2167C12.4833 11.8417 11.3667 10.7333 10 10.7333C8.63333 10.7333 7.51667 11.85 7.51667 13.2167V16.25H3.75V9.75833C4.075 9.93333 4.45 10.0417 4.84167 10.0417C5.51667 10.0417 6.11667 9.75 6.54167 9.3C6.96667 9.775 7.58333 10.0833 8.275 10.0833C8.96667 10.0833 9.56667 9.78333 9.99167 9.325C10.4167 9.79167 11.025 10.0833 11.7083 10.0833C12.3917 10.0833 13 9.79167 13.425 9.325C13.85 9.79167 14.4583 10.0833 15.1417 10.0833C15.5417 10.0833 15.9083 9.975 16.2333 9.8V16.25H17.4833V2.5H2.5V17.5H16.25V16.25H12.4833ZM14.0667 3.75H16.25V7.74167C16.25 8.34167 15.7583 8.83333 15.1583 8.83333C14.5583 8.83333 14.0667 8.34167 14.0667 7.74167V3.75ZM10.625 3.75H12.8083V7.74167C12.8083 8.34167 12.3167 8.83333 11.7167 8.83333C11.1167 8.83333 10.625 8.34167 10.625 7.74167V3.75ZM7.18333 7.70833V3.75H9.36667V7.74167C9.36667 8.34167 8.875 8.83333 8.275 8.83333C7.675 8.83333 7.18333 8.34167 7.18333 7.74167C7.18333 7.74167 7.18333 7.725 7.18333 7.70833ZM3.75 3.75H5.93333V7.7C5.93333 8.3 5.44167 8.79167 4.84167 8.79167C4.24167 8.79167 3.75 8.3 3.75 7.7V3.75ZM11.2333 16.25H8.75833V13.2167C8.75833 12.5333 9.31667 11.9833 9.99167 11.9833C10.6667 11.9833 11.225 12.5417 11.225 13.2167V16.25H11.2333Z" fill="white"/>
</g>
</svg>
