<svg width="74" height="14" viewBox="0 0 74 14" fill="none" xmlns="http://www.w3.org/2000/svg">
<path d="M6.99927 0.439453C7.16514 0.439503 7.32841 0.477432 7.47583 0.549805L7.61743 0.632812L7.74438 0.737305C7.8234 0.812687 7.89098 0.899641 7.9436 0.995117L8.01099 1.14551L9.25317 4.58789L12.9397 4.63965C13.1066 4.64231 13.2722 4.68321 13.4192 4.75879L13.5608 4.84668L13.6868 4.95508C13.7646 5.03277 13.8305 5.12133 13.8811 5.21875L13.9456 5.37207L13.9856 5.53125C14.0132 5.69384 14.0021 5.86133 13.9534 6.02051C13.8885 6.23243 13.7594 6.41905 13.5833 6.55469L13.5813 6.55664L10.6545 8.78613L11.6975 12.1738C11.9738 13.0705 11.0499 13.8293 10.2395 13.4688L10.0793 13.3809L6.99927 11.3701L3.92114 13.3799L3.92017 13.3809C3.73548 13.5008 3.5176 13.5616 3.29712 13.5547C3.07672 13.5477 2.86336 13.4731 2.68677 13.3418C2.51022 13.2104 2.37779 13.0276 2.30884 12.8193C2.24011 12.6112 2.23748 12.3865 2.30103 12.1768L2.302 12.1748L3.34399 8.78613L0.419189 6.55664L0.417236 6.55469C0.241311 6.41925 0.112107 6.23303 0.0471191 6.02148C-0.017773 5.80982 -0.0150597 5.5831 0.0549316 5.37305L0.119385 5.2207C0.195027 5.07444 0.303324 4.94604 0.437744 4.84766L0.578369 4.76074C0.725382 4.68461 0.889655 4.64266 1.05688 4.63965H1.05884L4.74634 4.58789L5.98657 1.14648L5.98755 1.14551C6.06283 0.938989 6.20023 0.758985 6.3811 0.632812L6.52368 0.549805C6.67089 0.477692 6.8337 0.439498 6.99927 0.439453Z" fill="#161D24"/>
<path d="M21.9993 0.439453C22.1651 0.439503 22.3284 0.477432 22.4758 0.549805L22.6174 0.632812L22.7444 0.737305C22.8234 0.812687 22.891 0.899641 22.9436 0.995117L23.011 1.14551L24.2532 4.58789L27.9397 4.63965C28.1066 4.64231 28.2722 4.68321 28.4192 4.75879L28.5608 4.84668L28.6868 4.95508C28.7646 5.03277 28.8305 5.12133 28.8811 5.21875L28.9456 5.37207L28.9856 5.53125C29.0132 5.69384 29.0021 5.86133 28.9534 6.02051C28.8885 6.23243 28.7594 6.41905 28.5833 6.55469L28.5813 6.55664L25.6545 8.78613L26.6975 12.1738C26.9738 13.0705 26.0499 13.8293 25.2395 13.4688L25.0793 13.3809L21.9993 11.3701L18.9211 13.3799L18.9202 13.3809C18.7355 13.5008 18.5176 13.5616 18.2971 13.5547C18.0767 13.5477 17.8634 13.4731 17.6868 13.3418C17.5102 13.2104 17.3778 13.0276 17.3088 12.8193C17.2401 12.6112 17.2375 12.3865 17.301 12.1768L17.302 12.1748L18.344 8.78613L15.4192 6.55664L15.4172 6.55469C15.2413 6.41925 15.1121 6.23303 15.0471 6.02148C14.9822 5.80982 14.9849 5.5831 15.0549 5.37305L15.1194 5.2207C15.195 5.07444 15.3033 4.94604 15.4377 4.84766L15.5784 4.76074C15.7254 4.68461 15.8897 4.64266 16.0569 4.63965H16.0588L19.7463 4.58789L20.9866 1.14648L20.9875 1.14551C21.0628 0.938989 21.2002 0.758985 21.3811 0.632812L21.5237 0.549805C21.6709 0.477692 21.8337 0.439498 21.9993 0.439453Z" fill="#161D24"/>
<path d="M36.9993 0.439453C37.1651 0.439503 37.3284 0.477432 37.4758 0.549805L37.6174 0.632812L37.7444 0.737305C37.8234 0.812687 37.891 0.899641 37.9436 0.995117L38.011 1.14551L39.2532 4.58789L42.9397 4.63965C43.1066 4.64231 43.2722 4.68321 43.4192 4.75879L43.5608 4.84668L43.6868 4.95508C43.7646 5.03277 43.8305 5.12133 43.8811 5.21875L43.9456 5.37207L43.9856 5.53125C44.0132 5.69384 44.0021 5.86133 43.9534 6.02051C43.8885 6.23243 43.7594 6.41905 43.5833 6.55469L43.5813 6.55664L40.6545 8.78613L41.6975 12.1738C41.9738 13.0705 41.0499 13.8293 40.2395 13.4688L40.0793 13.3809L36.9993 11.3701L33.9211 13.3799L33.9202 13.3809C33.7355 13.5008 33.5176 13.5616 33.2971 13.5547C33.0767 13.5477 32.8634 13.4731 32.6868 13.3418C32.5102 13.2104 32.3778 13.0276 32.3088 12.8193C32.2401 12.6112 32.2375 12.3865 32.301 12.1768L32.302 12.1748L33.344 8.78613L30.4192 6.55664L30.4172 6.55469C30.2413 6.41925 30.1121 6.23303 30.0471 6.02148C29.9822 5.80982 29.9849 5.5831 30.0549 5.37305L30.1194 5.2207C30.195 5.07444 30.3033 4.94604 30.4377 4.84766L30.5784 4.76074C30.7254 4.68461 30.8897 4.64266 31.0569 4.63965H31.0588L34.7463 4.58789L35.9866 1.14648L35.9875 1.14551C36.0628 0.938989 36.2002 0.758985 36.3811 0.632812L36.5237 0.549805C36.6709 0.477692 36.8337 0.439498 36.9993 0.439453Z" fill="#161D24"/>
<path d="M51.9993 0.439453C52.1651 0.439503 52.3284 0.477432 52.4758 0.549805L52.6174 0.632812L52.7444 0.737305C52.8234 0.812687 52.891 0.899641 52.9436 0.995117L53.011 1.14551L54.2532 4.58789L57.9397 4.63965C58.1066 4.64231 58.2722 4.68321 58.4192 4.75879L58.5608 4.84668L58.6868 4.95508C58.7646 5.03277 58.8305 5.12133 58.8811 5.21875L58.9456 5.37207L58.9856 5.53125C59.0132 5.69384 59.0021 5.86133 58.9534 6.02051C58.8885 6.23243 58.7594 6.41905 58.5833 6.55469L58.5813 6.55664L55.6545 8.78613L56.6975 12.1738C56.9738 13.0705 56.0499 13.8293 55.2395 13.4688L55.0793 13.3809L51.9993 11.3701L48.9211 13.3799L48.9202 13.3809C48.7355 13.5008 48.5176 13.5616 48.2971 13.5547C48.0767 13.5477 47.8634 13.4731 47.6868 13.3418C47.5102 13.2104 47.3778 13.0276 47.3088 12.8193C47.2401 12.6112 47.2375 12.3865 47.301 12.1768L47.302 12.1748L48.344 8.78613L45.4192 6.55664L45.4172 6.55469C45.2413 6.41925 45.1121 6.23303 45.0471 6.02148C44.9822 5.80982 44.9849 5.5831 45.0549 5.37305L45.1194 5.2207C45.195 5.07444 45.3033 4.94604 45.4377 4.84766L45.5784 4.76074C45.7254 4.68461 45.8897 4.64266 46.0569 4.63965H46.0588L49.7463 4.58789L50.9866 1.14648L50.9875 1.14551C51.0628 0.938989 51.2002 0.758985 51.3811 0.632812L51.5237 0.549805C51.6709 0.477692 51.8337 0.439498 51.9993 0.439453Z" fill="#161D24"/>
<path d="M66.9993 0.439453C67.1651 0.439503 67.3284 0.477432 67.4758 0.549805L67.6174 0.632812L67.7444 0.737305C67.8234 0.812687 67.891 0.899641 67.9436 0.995117L68.011 1.14551L69.2532 4.58789L72.9397 4.63965C73.1066 4.64231 73.2722 4.68321 73.4192 4.75879L73.5608 4.84668L73.6868 4.95508C73.7646 5.03277 73.8305 5.12133 73.8811 5.21875L73.9456 5.37207L73.9856 5.53125C74.0132 5.69384 74.0021 5.86133 73.9534 6.02051C73.8885 6.23243 73.7594 6.41905 73.5833 6.55469L73.5813 6.55664L70.6545 8.78613L71.6975 12.1738C71.9738 13.0705 71.0499 13.8293 70.2395 13.4688L70.0793 13.3809L66.9993 11.3701L63.9211 13.3799L63.9202 13.3809C63.7355 13.5008 63.5176 13.5616 63.2971 13.5547C63.0767 13.5477 62.8634 13.4731 62.6868 13.3418C62.5102 13.2104 62.3778 13.0276 62.3088 12.8193C62.2401 12.6112 62.2375 12.3865 62.301 12.1768L62.302 12.1748L63.344 8.78613L60.4192 6.55664L60.4172 6.55469C60.2413 6.41925 60.1121 6.23303 60.0471 6.02148C59.9822 5.80982 59.9849 5.5831 60.0549 5.37305L60.1194 5.2207C60.195 5.07444 60.3033 4.94604 60.4377 4.84766L60.5784 4.76074C60.7254 4.68461 60.8897 4.64266 61.0569 4.63965H61.0588L64.7463 4.58789L65.9866 1.14648L65.9875 1.14551C66.0628 0.938989 66.2002 0.758985 66.3811 0.632812L66.5237 0.549805C66.6709 0.477692 66.8337 0.439498 66.9993 0.439453Z" fill="#161D24"/>
</svg>
