<svg width="25" height="24" fill="none" xmlns="http://www.w3.org/2000/svg"><mask id="a" style="mask-type:luminance" maskUnits="userSpaceOnUse" x="0" y="0" width="25" height="24"><path d="M24.77 0h-24v24h24V0Z" fill="#fff"/></mask><g mask="url(#a)" fill="#161D24"><path d="M12.77 3.5c1.93 0 3.5 1.57 3.5 3.5s-1.57 3.5-3.5 3.5-3.5-1.57-3.5-3.5 1.57-3.5 3.5-3.5Zm0-1.5c-2.76 0-5 2.24-5 5s2.24 5 5 5 5-2.24 5-5-2.24-5-5-5ZM20.27 14.2h-15v1.5h15v-1.5ZM5.27 22v-6.29h-1.5V22h1.5ZM21.77 22v-6.29h-1.5V22h1.5Z"/></g></svg>