<svg xmlns="http://www.w3.org/2000/svg" viewBox="0 0 695 666" role="img" aria-label="앱 주문 아이콘">
  <path d="M 13 23 L 12 27 L 12 644 L 13 647 L 17 651 L 21 653 L 417 653 L 420 652 L 426 645 L 426 513 L 427 512 L 432 517 L 444 525 L 454 529 L 474 533 L 484 533 L 485 534 L 515 533 L 533 529 L 541 526 L 555 517 L 658 414 L 671 398 L 676 388 L 681 371 L 682 342 L 677 323 L 670 309 L 665 302 L 647 284 L 591 233 L 523 168 L 514 164 L 499 164 L 493 166 L 488 169 L 466 190 L 457 187 L 446 187 L 437 190 L 412 214 L 411 213 L 411 27 L 408 20 L 403 15 L 396 12 L 26 12 L 21 14 Z M 233 209 L 256 186 L 258 185 L 263 186 L 375 288 L 379 290 L 386 290 L 392 286 L 394 282 L 394 275 L 376 257 L 398 238 L 401 237 L 430 260 L 436 262 L 441 261 L 448 254 L 449 246 L 447 242 L 430 229 L 451 210 L 457 210 L 461 212 L 484 232 L 493 231 L 498 226 L 500 218 L 497 212 L 486 202 L 502 187 L 505 186 L 511 187 L 647 316 L 656 331 L 659 341 L 660 360 L 656 377 L 648 391 L 534 504 L 522 509 L 513 511 L 506 511 L 505 512 L 473 511 L 456 506 L 446 500 L 414 470 L 397 456 L 280 416 L 277 414 L 257 408 L 252 404 L 251 400 L 252 395 L 285 366 L 292 363 L 307 364 L 319 369 L 339 375 L 342 377 L 359 382 L 362 384 L 379 389 L 407 400 L 417 399 L 421 394 L 421 386 L 417 381 L 380 349 L 234 213 Z M 73 78 L 75 79 L 350 79 L 351 80 L 351 234 L 350 235 L 277 169 L 270 165 L 261 163 L 251 164 L 242 169 L 215 196 L 211 204 L 210 214 L 213 223 L 219 230 L 304 310 L 355 356 L 354 357 L 349 356 L 304 341 L 288 341 L 278 344 L 260 357 L 233 382 L 230 389 L 229 406 L 231 413 L 234 418 L 240 424 L 249 429 L 252 429 L 255 431 L 301 446 L 304 448 L 307 448 L 310 450 L 362 467 L 365 469 L 365 551 L 364 552 L 73 552 L 72 551 L 72 79 Z M 133 90 L 133 108 L 194 108 L 194 90 Z M 96 89 L 95 90 L 95 110 L 115 110 L 115 90 L 97 90 Z M 34 32 L 388 32 L 389 33 L 389 216 L 373 231 L 372 230 L 372 67 L 367 60 L 362 58 L 60 58 L 53 63 L 51 67 L 51 565 L 57 572 L 59 573 L 68 573 L 69 574 L 74 574 L 75 573 L 76 574 L 78 573 L 79 574 L 98 574 L 99 573 L 100 574 L 106 574 L 107 573 L 108 574 L 118 574 L 119 573 L 120 574 L 123 573 L 124 574 L 171 574 L 172 573 L 173 574 L 317 574 L 318 573 L 319 574 L 338 574 L 339 573 L 341 574 L 365 574 L 366 573 L 370 574 L 371 573 L 379 573 L 382 572 L 386 568 L 388 558 L 387 557 L 388 552 L 387 551 L 388 546 L 387 545 L 387 479 L 389 478 L 405 494 L 405 631 L 404 632 L 34 632 L 33 631 L 33 33 Z M 181 589 L 181 609 L 258 609 L 258 589 Z" fill="currentColor" fill-rule="evenodd"/>
</svg>
