<svg width="32" height="32" viewBox="0 0 32 32" fill="none" xmlns="http://www.w3.org/2000/svg">
<g clip-path="url(#clip0_13945_42261)">
<mask id="mask0_13945_42261" style="mask-type:luminance" maskUnits="userSpaceOnUse" x="0" y="0" width="32" height="32">
<path d="M32 0H0V32H32V0Z" fill="white"/>
</mask>
<g mask="url(#mask0_13945_42261)">
</g>
<g clip-path="url(#clip1_13945_42261)">
<path d="M23.3717 7.87537C23.3717 8.25243 23.0669 8.55723 22.6887 8.55723C22.3105 8.55723 22.0068 8.2513 22.0068 7.87537C22.0068 7.49945 22.3116 7.19238 22.6887 7.19238C23.0658 7.19238 23.3717 7.49832 23.3717 7.87537Z" fill="#646F7C"/>
<path d="M15.7358 10.281C15.7358 11.0589 16.368 11.691 17.1447 11.691H18.2364V11.0566H17.1447C16.718 11.0566 16.3703 10.7089 16.3703 10.2822C16.3703 9.85544 16.7169 9.50774 17.1447 9.50774H18.2364V8.87329H17.1447C16.3669 8.87329 15.7358 9.50548 15.7358 10.2822V10.281Z" fill="#646F7C"/>
<path d="M18.3967 10.281C18.3967 11.0589 19.0289 11.691 19.8079 11.691H20.8995V11.0566H19.8079C19.3811 11.0566 19.0323 10.7089 19.0323 10.2822C19.0323 9.85544 19.3811 9.50774 19.8079 9.50774H20.8995V8.87329H19.8079C19.03 8.87329 18.3967 9.50548 18.3967 10.2822V10.281Z" fill="#646F7C"/>
<path d="M25.555 7.87537C25.555 8.25243 25.2502 8.55723 24.8732 8.55723C24.4961 8.55723 24.1902 8.2513 24.1902 7.87537C24.1902 7.49945 24.4961 7.19238 24.8732 7.19238C25.2502 7.19238 25.555 7.49832 25.555 7.87537Z" fill="#646F7C"/>
<path d="M24.8742 8.87231C24.434 8.87231 24.0411 9.07439 23.7814 9.39161C23.5229 9.07439 23.1289 8.87231 22.6887 8.87231C21.912 8.87231 21.2798 9.5045 21.2798 10.2812V11.6912H21.9142V10.2812C21.9142 9.85446 22.2619 9.50676 22.6887 9.50676C23.1154 9.50676 23.4631 9.85446 23.4631 10.2812V11.6912H24.0975V10.2812C24.0975 9.85446 24.4452 9.50676 24.8731 9.50676C25.301 9.50676 25.6475 9.85446 25.6475 10.2812V11.6912H26.282V10.2812C26.282 9.5045 25.6498 8.87231 24.8731 8.87231H24.8742Z" fill="#646F7C"/>
<path d="M30.7435 9.77182C29.9375 7.86622 28.7837 6.15593 27.315 4.68609C25.8452 3.21738 24.1338 2.06364 22.2282 1.2576C20.256 0.42334 18.1607 0 16.0011 0C13.8415 0 11.7451 0.42334 9.77295 1.2576C7.86622 2.06364 6.15593 3.21738 4.68722 4.68609C3.21739 6.1548 2.06477 7.86622 1.25873 9.77182C0.42334 11.7451 0 13.8404 0 16C0 17.988 0.36125 19.9286 1.07133 21.7687C1.17632 22.0397 1.43597 22.2056 1.70917 22.2056C1.79045 22.2056 1.87511 22.1909 1.9564 22.1593C2.30861 22.0227 2.4836 21.6276 2.347 21.2754C1.69675 19.5933 1.36711 17.8187 1.36711 16C1.36711 14.0233 1.75432 12.1075 2.51746 10.3035C3.25464 8.56163 4.31017 6.99584 5.65357 5.65244C6.9981 4.30904 8.56276 3.25351 10.3047 2.51633C12.1087 1.75432 14.0244 1.36711 16.0011 1.36711C17.9778 1.36711 19.8925 1.75432 21.6965 2.51633C23.4384 3.25351 25.0042 4.30904 26.3476 5.65244C27.6921 6.99584 28.7465 8.56163 29.4837 10.3035C30.2468 12.1075 30.6329 14.0233 30.6329 16C30.6329 17.8187 30.3033 19.5933 29.653 21.2754C29.5164 21.6276 29.6914 22.0238 30.0447 22.1593C30.397 22.2959 30.7921 22.1209 30.9287 21.7687C31.6399 19.9286 32.0011 17.988 32.0011 16C32.0011 13.8404 31.5778 11.7451 30.7435 9.77182Z" fill="#646F7C"/>
<path d="M23.9217 26.0789C23.9217 25.9039 23.7614 25.782 23.5401 25.782C23.3188 25.782 23.1597 25.9005 23.1597 26.0789C23.1597 26.2573 23.3256 26.3747 23.5401 26.3747C23.7546 26.3747 23.9217 26.2527 23.9217 26.0789Z" fill="#646F7C"/>
<path d="M8.18575 26.7629C7.82563 26.7629 7.58179 26.8645 7.58179 27.0655C7.58179 27.2664 7.82563 27.3646 8.18575 27.3646C8.54587 27.3646 8.78972 27.2676 8.78972 27.0655C8.78972 26.8634 8.55039 26.7629 8.18575 26.7629Z" fill="#646F7C"/>
<path d="M18.3709 25.9175C18.6475 25.9175 18.8032 25.7539 18.8032 25.5732C18.8032 25.3655 18.6565 25.2097 18.3709 25.2097C18.0853 25.2097 17.9329 25.3791 17.9329 25.5732C17.9329 25.7674 18.0853 25.9175 18.3709 25.9175Z" fill="#646F7C"/>
<path d="M20.9176 25.6907C21.1254 25.6907 21.3161 25.6162 21.3161 25.4356C21.3161 25.2549 21.1254 25.1804 20.9176 25.1804C20.7201 25.1804 20.5203 25.2549 20.5203 25.4356C20.5203 25.6162 20.7201 25.6907 20.9176 25.6907Z" fill="#646F7C"/>
<path d="M29.775 23.4678C29.6531 23.2544 29.4262 23.1223 29.1812 23.1223H2.82013C2.57403 23.1223 2.34825 23.2544 2.22633 23.4678C2.1044 23.6811 2.10779 23.943 2.2331 24.1553C3.62617 26.5011 5.6074 28.4666 7.96569 29.8382C10.3951 31.2527 13.1733 32 16.0013 32C18.8292 32 21.6074 31.2527 24.0368 29.8382C26.394 28.4654 28.3763 26.5011 29.7694 24.1553C29.8947 23.943 29.897 23.6811 29.775 23.4678ZM22.7194 25.1939H23.373V24.9003H23.6925V25.1939H24.3608V25.4625H22.7194V25.1939ZM21.9957 24.9365H22.3118V27.0148H21.9957V26.7597H21.2281V26.4966H21.9957V24.9365ZM20.9176 24.9365C21.2631 24.9365 21.621 25.0945 21.621 25.4354C21.621 25.7764 21.2631 25.9344 20.9176 25.9344C20.5722 25.9344 20.2155 25.7798 20.2155 25.4354C20.2155 25.0911 20.5733 24.9365 20.9176 24.9365ZM18.3708 24.9613C18.8111 24.9613 19.1046 25.2198 19.1046 25.5743C19.1046 25.9288 18.7919 26.1704 18.3708 26.1704C17.9023 26.1704 17.6224 25.9401 17.6224 25.5743C17.6224 25.2085 17.9249 24.9613 18.3708 24.9613ZM11.6301 24.9365H11.9406V26.4718H11.6301V25.7594H11.0533V25.493H11.6301V24.9365ZM7.26803 24.9613H8.93655C9.02799 24.9613 9.10589 25.0313 9.10589 25.1273V25.3767C9.10589 25.519 9.06976 25.7561 8.96477 25.9672L8.66223 25.9649C8.70625 25.8317 8.79318 25.5269 8.79318 25.3914V25.2447C8.79318 25.2255 8.78528 25.2176 8.76496 25.2176H7.26803V24.9624V24.9613ZM8.18583 27.6221C7.6733 27.6221 7.25222 27.4505 7.25222 27.0645C7.25222 26.6784 7.6733 26.5045 8.18583 26.5045C8.69835 26.5045 9.12056 26.6795 9.12056 27.0645C9.12056 27.4494 8.70174 27.6221 8.18583 27.6221ZM9.43327 26.3115V26.3668H6.93613V26.106H7.88441V25.5382H8.19712V26.106H9.43327V26.3103V26.3115ZM9.65905 26.2358C10.0576 26.0676 10.3488 25.7786 10.3488 25.5348V25.2718H9.8329V25.0166H11.2V25.2718H10.6739V25.5348C10.6739 25.826 11.0724 26.053 11.3287 26.1636L11.1323 26.3713C10.9189 26.2821 10.6581 26.1049 10.5193 25.9299C10.3646 26.1241 10.0846 26.3487 9.85661 26.4368L9.66018 26.2347L9.65905 26.2358ZM11.0499 27.63C10.657 27.63 10.1546 27.5386 10.1546 27.0735C10.1546 26.6084 10.7146 26.509 11.0499 26.509C11.4405 26.509 11.9428 26.6061 11.9428 27.0735C11.9428 27.5409 11.4405 27.63 11.0499 27.63ZM14.545 27.5194V27.5747H14.2311V26.0417H13.6768C13.6768 26.6987 13.0153 27.0487 12.4712 27.1728L12.3075 26.9482C12.7206 26.8488 13.3551 26.5745 13.3551 26.0834L13.3585 25.3655C13.3585 25.3463 13.3472 25.3384 13.328 25.3384H12.3775V25.0719H13.5131C13.6102 25.0719 13.6768 25.1521 13.6768 25.2413V25.7764H14.2311V24.9365H14.545V27.5194ZM16.1322 26.8929C15.8218 26.9369 15.5757 26.9651 15.0925 26.9651C14.992 26.9651 14.9231 26.8906 14.9231 26.798V25.8452H15.6298C15.649 25.8452 15.6581 25.8339 15.6581 25.8148V25.2988H14.9231V25.0471H15.9742V26.0913H15.237V26.6795C15.237 26.6987 15.2449 26.7066 15.2652 26.7066C15.5113 26.7089 15.7687 26.6953 16.1322 26.64V26.8917V26.8929ZM17.1911 27.5194V27.5747H16.8773V26.0834H16.5759V27.5115H16.2632V24.9342H16.5759V25.8181H16.8773V24.9342H17.1911V27.5194ZM19.3112 26.5113V26.5463L19.2717 26.561C19.0651 26.6276 18.8393 26.6411 18.4927 26.6501V27.5623H18.1767V26.6501H17.5219V26.3803H18.4036C18.7332 26.3803 19.0674 26.3499 19.3101 26.2945V26.5113H19.3112ZM19.7402 27.5194V27.5747H19.4218V24.9387H19.7402V27.5194ZM20.1026 26.0507H20.9143C21.2586 26.0507 21.6627 26.0123 21.8772 25.9593V26.22L21.8388 26.237C21.639 26.3126 21.245 26.3228 20.9515 26.3228V26.7551H20.6309V26.3228H20.1037V26.0507H20.1026ZM22.3514 27.5228V27.5781H20.6682C20.579 27.5781 20.4988 27.5059 20.4988 27.4088V26.8714H20.8149V27.2812C20.8149 27.3004 20.8285 27.3083 20.8397 27.3083H22.3514V27.5217V27.5228ZM24.5019 27.0283V27.0599L24.4624 27.0757C24.2603 27.1503 23.8663 27.1649 23.4656 27.1649H22.681V26.9042H23.3933V26.6242C23.0693 26.5711 22.8368 26.3668 22.8368 26.0778C22.8368 25.7538 23.1438 25.5212 23.5412 25.5212C23.9386 25.5212 24.2502 25.7538 24.2502 26.0778C24.2502 26.3544 24.0176 26.5677 23.7072 26.6208V26.903C23.9826 26.8951 24.2818 26.8669 24.5031 26.8116V27.0272L24.5019 27.0283ZM24.9343 27.5194V27.5747H24.6182V24.9342H24.9343V27.5194Z" fill="#646F7C"/>
<path d="M11.0533 26.7654C10.7733 26.7654 10.4629 26.832 10.4629 27.0736C10.4629 27.3152 10.7733 27.3727 11.0533 27.3727C11.3333 27.3727 11.6381 27.3174 11.6381 27.0736C11.6381 26.8297 11.3276 26.7654 11.0533 26.7654Z" fill="#646F7C"/>
<path d="M5.57584 15.2775C5.95063 15.8928 6.95423 16.5464 7.53562 16.7293L7.95106 16.2224C7.25904 15.9944 5.90435 15.1827 5.90435 14.3383V13.5142H5.2462V14.3383C5.2462 15.2075 3.87345 15.9944 3.17578 16.2224L3.60815 16.7361C4.25953 16.5137 5.18862 15.8408 5.57471 15.2775H5.57584Z" fill="#646F7C"/>
<path d="M5.90537 16.4065H5.2427V17.9158H2.97021V18.5243H8.04352H8.15867V18.3979V17.9158H5.90537V16.4065Z" fill="#646F7C"/>
<path d="M17.7746 13.2534H17.1165V19.2919H17.6595H17.7746V19.1644V16.026H18.5174V15.4232H17.7746V13.2534Z" fill="#646F7C"/>
<path d="M15.2549 15.3848V14.161H16.4606V13.5593H13.4215V14.161H14.5933V15.3599C14.5933 15.9695 13.8313 17.0149 13.1111 17.5037L13.5785 17.9666C14.0063 17.681 14.6396 16.9077 14.9444 16.4064C15.221 16.8444 15.8272 17.5737 16.254 17.8593L16.692 17.3897C16.0406 16.946 15.2571 16.026 15.2571 15.3859L15.2549 15.3848Z" fill="#646F7C"/>
<path d="M19.1565 15.1567L19.5245 15.6512C20.1296 15.4672 20.9718 15.0551 21.3703 14.5031C21.7846 15.0292 22.5929 15.4672 23.2273 15.6512L23.5852 15.1567C22.5985 14.8711 22.0217 14.4534 21.797 14.0019L21.7688 13.9387H23.2499V13.3674H19.4963V13.9387H20.9898L20.9616 13.9962C20.702 14.4783 20.1657 14.8587 19.1565 15.1567Z" fill="#646F7C"/>
<path d="M18.7534 16.5397H21.0361V17.0725C19.9817 17.1425 19.4104 17.5614 19.4104 18.2398C19.4104 19.0007 20.1081 19.4128 21.3601 19.4128C22.612 19.4128 23.3029 18.9748 23.3029 18.2398C23.3029 17.5546 22.7385 17.1425 21.6818 17.0725V16.5397H23.9486V15.938H18.7534V16.5397ZM22.6448 18.2387C22.6448 18.5875 22.2587 18.8223 21.3601 18.8223C20.4615 18.8223 20.0731 18.5943 20.0731 18.2387C20.0731 17.9023 20.466 17.6359 21.3601 17.6359C22.2542 17.6359 22.6448 17.9023 22.6448 18.2387Z" fill="#646F7C"/>
<path d="M12.0669 19.292H12.6155H12.7307V19.1644V13.2478H12.0669V19.292Z" fill="#646F7C"/>
<path d="M10.6253 15.1059H9.13737V13.5198H8.48486V17.5342C8.48486 17.743 8.62936 17.9157 8.83708 17.9157H11.2823V13.5198H10.6253V15.1059ZM10.6253 17.2497V17.3129H9.19607C9.15543 17.3129 9.1385 17.2937 9.1385 17.2497V15.7144H10.6264V17.2497H10.6253Z" fill="#646F7C"/>
<path d="M28.1812 16.6977H28.7117H28.8269V16.5713V13.2534H28.1812V16.6977Z" fill="#646F7C"/>
<path d="M25.8916 15.4039C26.1501 15.7912 26.8196 16.2664 27.3276 16.4504L27.6967 15.9752C27.0341 15.6512 26.1975 15.1251 26.1975 14.4715V13.3369H25.5225V14.485C25.5225 15.2143 24.8022 15.8487 24.0933 16.2224L24.5245 16.6785C25.1307 16.3364 25.6207 15.8036 25.8916 15.4039Z" fill="#646F7C"/>
<path d="M25.0437 18.9306C25.0437 19.153 25.1938 19.311 25.3959 19.311H28.7804V18.9306V17.0532H25.0437V18.9306ZM25.6793 17.6357H28.1459V18.7263H25.7369C25.6962 18.7263 25.6793 18.7071 25.6793 18.663V17.6357Z" fill="#646F7C"/>
</g>
</g>
<defs>
<clipPath id="clip0_13945_42261">
<rect width="32" height="32" fill="white"/>
</clipPath>
<clipPath id="clip1_13945_42261">
<rect width="32" height="32" fill="white"/>
</clipPath>
</defs>
</svg>
