<svg width="32" height="32" viewBox="0 0 32 32" fill="none" xmlns="http://www.w3.org/2000/svg">
<g clip-path="url(#clip0_13945_42315)">
<path d="M27.0689 19.8718V22.1269L16.4232 27.7359L5.77178 22.1269V19.8718H2V24.4048L16.4232 31.9999L30.8406 24.4048V19.8718H27.0689Z" fill="#646F7C"/>
<path d="M30.8406 4.47576V9.24915H27.0689V6.99982C23.32 5.52889 19.7256 4.48721 16.4232 3.84046C13.115 4.48721 9.52638 5.52316 5.7775 6.99982V9.24915H2V4.47576C2.53801 4.2411 3.08746 4.00644 3.63692 3.78322C7.95242 2.03184 12.3023 0.7555 16.4232 0C20.5441 0.7555 24.8882 2.03184 29.2037 3.78322C29.7589 4.00644 30.3026 4.2411 30.8406 4.47576Z" fill="#646F7C"/>
<path d="M3.40221 10.6113H2.84131V18.5097H3.40221V10.6113Z" fill="#646F7C"/>
<path d="M2.37203 10.6113H2V18.5097H2.37203V10.6113Z" fill="#646F7C"/>
<path d="M4.74155 10.6113H3.87158V18.5097H4.74155V10.6113Z" fill="#646F7C"/>
<path d="M5.77184 10.6113H5.21094V18.5097H5.77184V10.6113Z" fill="#646F7C"/>
<path d="M28.9691 10.6113H28.0991V18.5097H28.9691V10.6113Z" fill="#646F7C"/>
<path d="M29.9994 10.6113H29.4385V18.5097H29.9994V10.6113Z" fill="#646F7C"/>
<path d="M30.8408 10.6113H30.4688V18.5097H30.8408V10.6113Z" fill="#646F7C"/>
<path d="M27.6297 10.6113H27.0688V18.5097H27.6297V10.6113Z" fill="#646F7C"/>
<path d="M11.5582 16.3518V15.6306H8.20996V16.5464H10.1216L8.15845 18.996V19.7229H11.644V18.8071H9.59504L11.5582 16.3518Z" fill="#646F7C"/>
<path d="M15.4732 15.6306H12.3481V16.5235H15.4732V15.6306Z" fill="#646F7C"/>
<path d="M12.3481 19.723H15.4674V18.8301H13.4356V18.0803H15.4674V17.2161H12.3481V19.723Z" fill="#646F7C"/>
<path d="M19.0217 18.4351C19.2621 18.3092 19.4509 18.1375 19.5826 17.92C19.7142 17.7025 19.7829 17.445 19.7829 17.1473C19.7829 16.8497 19.7142 16.5693 19.5711 16.3403C19.4281 16.1114 19.2277 15.9397 18.9702 15.8138C18.7126 15.6936 18.4093 15.6306 18.0544 15.6306H16.2744V19.7286H17.3733V18.6354H17.9743L18.6783 19.7286H19.8573L19.0217 18.4408V18.4351ZM18.4951 17.588C18.3807 17.6911 18.209 17.7426 17.9857 17.7426H17.3733V16.5464H17.9857C18.209 16.5464 18.3807 16.5979 18.4951 16.7009C18.6096 16.8039 18.6668 16.9527 18.6668 17.1473C18.6668 17.3419 18.6096 17.485 18.4951 17.588Z" fill="#646F7C"/>
<path d="M24.2871 16.4033L23.4973 17.1932C23.5488 17.3362 23.5774 17.4965 23.5774 17.6739C23.5774 17.9029 23.5316 18.1089 23.4401 18.2863C23.3485 18.4638 23.2226 18.6011 23.0623 18.6984C22.9021 18.7957 22.7246 18.8472 22.53 18.8472C22.3354 18.8472 22.158 18.7957 21.9977 18.6984L21.2651 19.431C21.3166 19.4654 21.3682 19.4997 21.4197 19.5341C21.7459 19.7172 22.1179 19.8088 22.53 19.8088C22.9421 19.8088 23.3084 19.7172 23.6404 19.5341C23.9666 19.3509 24.2242 19.0991 24.4131 18.7728C24.6019 18.4466 24.6935 18.086 24.6935 17.6797C24.6935 17.2733 24.6019 16.907 24.4131 16.5865C24.3787 16.5235 24.3329 16.4663 24.2929 16.409L24.2871 16.4033Z" fill="#646F7C"/>
<path d="M21.4713 17.6739C21.4713 17.445 21.5171 17.2389 21.6087 17.0615C21.7002 16.8841 21.8262 16.7467 21.9864 16.6494C22.1467 16.5521 22.3241 16.5006 22.5187 16.5006C22.7133 16.5006 22.8907 16.5521 23.051 16.6494L23.7836 15.9168C23.7321 15.8825 23.6806 15.8481 23.6291 15.8138C23.3028 15.6306 22.9308 15.5391 22.5187 15.5391C22.1066 15.5391 21.7403 15.6306 21.4083 15.8138C21.0821 15.9969 20.8246 16.2488 20.6357 16.575C20.4468 16.9013 20.3552 17.2618 20.3552 17.6682C20.3552 18.0746 20.4468 18.4409 20.6357 18.7614C20.67 18.8243 20.7158 18.8816 20.7559 18.9388L21.5457 18.149C21.4942 18.0059 21.4656 17.8456 21.4656 17.6682L21.4713 17.6739Z" fill="#646F7C"/>
<path d="M8.15845 13.0608H9.18295V14.1598H9.8297V13.0608H10.837V12.4771H8.15845V13.0608Z" fill="#646F7C"/>
<path d="M9.44627 10.2793C8.71366 10.2793 8.32446 10.7486 8.32446 11.2122V11.3496C8.32446 11.8132 8.71366 12.2825 9.44627 12.2825C10.1789 12.2825 10.5509 11.8132 10.5509 11.3496V11.2122C10.5509 10.7486 10.1731 10.2793 9.44627 10.2793ZM9.89842 11.3439C9.89842 11.5327 9.74389 11.7216 9.44627 11.7216C9.14864 11.7216 8.98266 11.5327 8.98266 11.3439V11.2122C8.98266 11.0234 9.1372 10.8345 9.44627 10.8345C9.75533 10.8345 9.89842 11.0234 9.89842 11.2122V11.3439Z" fill="#646F7C"/>
<path d="M11.6669 10.2449H11.0144V14.1941H11.6669V10.2449Z" fill="#646F7C"/>
<path d="M13.4126 11.4639C12.8804 11.4639 12.5713 11.813 12.5713 12.4311V12.9691C12.5713 13.5816 12.8861 13.9421 13.4126 13.9421C13.9392 13.9421 14.2483 13.5758 14.2483 12.9691V12.4311C14.2483 11.813 13.9449 11.4639 13.4126 11.4639ZM13.613 12.9691C13.613 13.118 13.5901 13.3698 13.4126 13.3698C13.3669 13.3698 13.218 13.3698 13.218 12.9691V12.4311C13.218 12.0305 13.3669 12.0305 13.4126 12.0305C13.5901 12.0305 13.613 12.2823 13.613 12.4311V12.9691Z" fill="#646F7C"/>
<path d="M13.7446 10.2734H13.0864V10.7485H12.4282V11.338H14.3742V10.7485H13.7446V10.2734Z" fill="#646F7C"/>
<path d="M15.4275 11.7044H15.1356V10.2678H14.5117V14.1655H15.1356V12.2595H15.4275V14.1941H16.0685V10.2449H15.4275V11.7044Z" fill="#646F7C"/>
<path d="M20.0977 10.2449H19.4395V12.4999H20.0977V11.63H20.6242V11.0519H20.0977V10.2449Z" fill="#646F7C"/>
<path d="M17.0986 12.3911C17.4134 12.0992 17.6595 11.8703 17.8942 11.5727L17.9114 11.5555C17.9114 11.5555 17.9343 11.5326 17.9457 11.5212C17.9629 11.5383 17.9801 11.5555 17.9972 11.5727C18.2433 11.8531 18.4666 12.0935 18.7813 12.3568L18.81 12.3797L19.2106 11.9332L19.182 11.9104C18.8672 11.6413 18.6325 11.4067 18.3864 11.1377C18.2948 11.0461 18.272 10.9831 18.272 10.8286V10.2734H17.6023V10.8286C17.6023 10.9774 17.5794 11.0289 17.4878 11.132C17.2646 11.3952 17.0242 11.6356 16.6751 11.9447L16.6465 11.9676L17.07 12.4083L17.0986 12.3854V12.3911Z" fill="#646F7C"/>
<path d="M19.079 12.5686H18.0602C17.3619 12.5686 16.9556 12.8777 16.9556 13.4157C16.9556 13.9537 17.3562 14.2742 18.0602 14.2742H19.079C19.783 14.2742 20.1836 13.9594 20.1836 13.4157C20.1836 12.8719 19.783 12.5686 19.079 12.5686ZM19.1305 13.6961H18.0201C17.7454 13.6961 17.608 13.6046 17.608 13.4157C17.608 13.2268 17.7397 13.1352 18.0201 13.1352H19.1305C19.4052 13.1352 19.5426 13.2268 19.5426 13.4157C19.5426 13.6046 19.4109 13.6961 19.1305 13.6961Z" fill="#646F7C"/>
<path d="M24.6821 12.5743V12.0134H21.1335V12.5743H22.5701V12.7918H21.5743C21.4197 12.7918 21.3224 12.8891 21.3224 13.0437V13.948C21.3224 14.1025 21.4254 14.1998 21.5743 14.1998H24.2528C24.4074 14.1998 24.5047 14.1025 24.5047 13.948V13.0437C24.5047 12.8891 24.4017 12.7918 24.2528 12.7918H23.2341V12.5743H24.6878H24.6821ZM23.8579 13.3527V13.6389H21.952V13.3527H23.8579Z" fill="#646F7C"/>
<path d="M24.5104 10.8345V10.2793H21.2996V10.8345H21.8719V11.2695H21.2996V11.8246H24.5104V11.2695H23.9438V10.8345H24.5104ZM23.2799 11.2637H22.5244V10.8288H23.2799V11.2637Z" fill="#646F7C"/>
</g>
<defs>
<clipPath id="clip0_13945_42315">
<rect width="28.8406" height="32" fill="white" transform="translate(2)"/>
</clipPath>
</defs>
</svg>
