<svg width="32" height="32" viewBox="0 0 32 32" fill="none" xmlns="http://www.w3.org/2000/svg">
<g clip-path="url(#clip0_13945_42300)">
<path d="M32 14.502C32 17.5381 29.3932 20.0039 26.1744 20.0039C24.4284 20.0039 22.8618 19.2757 21.797 18.1275H22.9883V15.681C23.3717 15.7079 23.8368 15.7195 24.257 15.6887L25.6155 18.1275H28.1407L26.3498 15.3573L26.5008 15.2726C27.3126 14.8179 27.7777 14.082 27.7777 13.2575C27.7777 11.7048 26.4967 10.9496 23.8572 10.9496C23.3065 10.9496 22.4049 10.9997 21.6379 11.0613C22.7068 9.80531 24.3427 9.00391 26.1785 9.00391C29.3932 9.00391 32.0041 11.4659 32.0041 14.5058L32 14.502ZM25.3585 13.2228C25.3585 12.4754 24.7751 11.9899 23.8735 11.9899C23.3677 11.9899 22.9842 12.0708 22.9842 12.0708V14.5752C22.9842 14.5752 23.2657 14.6214 23.743 14.6214C24.7547 14.6214 25.3585 14.0974 25.3585 13.219V13.2228Z" fill="#646F7C"/>
<path d="M4.98521 18.1237L2.32942 14.6946V18.1237H0V11.0305H2.32942V14.1976L4.85467 11.0305H7.53901L4.52014 14.4018L7.67771 18.1198H4.98113L4.98521 18.1237Z" fill="#646F7C"/>
<path d="M18.2806 18.1236V13.7544C18.2806 13.0185 17.9461 12.6487 17.2893 12.6487C16.7508 12.6487 16.2367 12.9415 15.6207 13.5926L15.5758 13.6388V18.1198H13.2301V13.7698C13.2301 13.0339 12.8956 12.6641 12.2388 12.6641C11.7166 12.6641 11.2026 12.953 10.5702 13.608L10.5213 13.6543V18.1198H8.17554V11.0304H10.4519V12.6217L10.7538 12.3135C11.7451 11.3079 12.5203 10.8956 13.4178 10.8956C14.4784 10.8956 15.1149 11.3271 15.4249 12.2518L15.5146 12.5254L15.7186 12.3173C16.6855 11.3387 17.5585 10.884 18.4682 10.884C19.8431 10.884 20.6304 11.7163 20.6304 13.1649V18.1313H18.2847L18.2806 18.1236Z" fill="#646F7C"/>
</g>
<g clip-path="url(#clip1_13945_42300)">
<path d="M0.494735 20.0403V22.5563H0V20.0403H0.494735Z" fill="#646F7C"/>
<path d="M2.05585 22.0558C2.21631 22.1398 2.45699 22.2171 2.7077 22.2171C3.02192 22.2171 3.19909 22.0793 3.19909 21.8744C3.19909 21.6829 3.06203 21.5721 2.72107 21.4579C2.27313 21.3101 1.98899 21.0884 1.98899 20.7256C1.98899 20.3124 2.36005 20 2.94838 20C3.24255 20 3.45649 20.0571 3.59688 20.1243L3.47989 20.4938C3.38294 20.4468 3.1924 20.3729 2.94169 20.3729C2.62747 20.3729 2.4971 20.5274 2.4971 20.6752C2.4971 20.8667 2.65421 20.9574 3.01524 21.0884C3.48323 21.2563 3.71054 21.4747 3.71054 21.8375C3.71054 22.2439 3.38294 22.5933 2.68764 22.5933C2.40016 22.5933 2.10599 22.516 1.95557 22.432L2.06588 22.0525L2.05585 22.0558Z" fill="#646F7C"/>
<path d="M7.45777 21.2728C7.45777 22.116 6.90955 22.5963 6.1641 22.5963C5.41866 22.5963 4.91724 22.0522 4.91724 21.3165C4.91724 20.5808 5.44206 19.9963 6.20422 19.9963C6.96638 19.9963 7.45777 20.5506 7.45777 21.2695V21.2728ZM5.44206 21.3098C5.44206 21.8237 5.71951 22.2302 6.19084 22.2302C6.66218 22.2302 6.93629 21.817 6.93629 21.2896C6.93629 20.816 6.68224 20.3658 6.19084 20.3658C5.69945 20.3658 5.43871 20.7891 5.43871 21.3064L5.44206 21.3098Z" fill="#646F7C"/>
<path d="M9.81464 22.227C9.89152 22.2337 9.96841 22.2303 10.0887 22.2202C10.2826 22.2034 10.4732 22.143 10.6169 22.0321C10.7874 21.9078 10.9044 21.7231 10.9512 21.4947H10.9412C10.8108 21.629 10.6236 21.7063 10.3762 21.7063C9.92161 21.7063 9.58398 21.4006 9.58398 20.9538C9.58398 20.5071 9.96841 20.0872 10.5233 20.0872C11.1317 20.0872 11.4526 20.5306 11.4526 21.1218C11.4526 21.6391 11.2721 22.0086 10.998 22.2471C10.7707 22.4419 10.4598 22.5562 10.1088 22.5797C9.99849 22.5931 9.88818 22.5931 9.8113 22.5864V22.2236L9.81464 22.227ZM10.0754 20.9303C10.0754 21.1822 10.2325 21.3771 10.5033 21.3771C10.7005 21.3771 10.8476 21.2864 10.9211 21.1755C10.9378 21.1419 10.9512 21.105 10.9512 21.0445C10.9512 20.7153 10.8208 20.4332 10.4999 20.4332C10.2492 20.4332 10.072 20.6381 10.072 20.9303H10.0754Z" fill="#646F7C"/>
<path d="M14.5948 21.3268C14.5948 22.1094 14.2672 22.5965 13.6421 22.5965C13.017 22.5965 12.7228 22.0859 12.7195 21.3503C12.7195 20.5945 13.0638 20.0906 13.6722 20.0906C14.2806 20.0906 14.5948 20.6146 14.5948 21.3301V21.3268ZM13.2142 21.3503C13.2142 21.9415 13.388 22.2472 13.6588 22.2472C13.9496 22.2472 14.1001 21.918 14.1001 21.3368C14.1001 20.7557 13.9563 20.4399 13.6588 20.4399C13.3981 20.4399 13.2142 20.7423 13.2142 21.3469V21.3503Z" fill="#646F7C"/>
<path d="M17.6397 21.3268C17.6397 22.1094 17.3121 22.5965 16.687 22.5965C16.0619 22.5965 15.7677 22.0859 15.7644 21.3503C15.7644 20.5945 16.1087 20.0906 16.7171 20.0906C17.3255 20.0906 17.6397 20.6146 17.6397 21.3301V21.3268ZM16.2591 21.3503C16.2591 21.9415 16.433 22.2472 16.7037 22.2472C16.9979 22.2472 17.145 21.918 17.145 21.3368C17.145 20.7557 17.0012 20.4399 16.7037 20.4399C16.443 20.4399 16.2591 20.7423 16.2591 21.3469V21.3503Z" fill="#646F7C"/>
<path d="M19.5256 20.5476H19.5189L19.0442 20.7693L18.9573 20.4234L19.5924 20.1311H20.0036V22.5564H19.5256V20.5476Z" fill="#646F7C"/>
</g>
<defs>
<clipPath id="clip0_13945_42300">
<rect width="32" height="11" fill="white" transform="translate(0 9)"/>
</clipPath>
<clipPath id="clip1_13945_42300">
<rect width="20" height="2.6" fill="white" transform="translate(0 20)"/>
</clipPath>
</defs>
</svg>
